<?xml version="1.0" encoding="UTF-8"?>
<svg width="57px" height="66px" viewBox="0 0 57 66" version="1.1" xmlns="http://www.w3.org/2000/svg" xmlns:xlink="http://www.w3.org/1999/xlink">
    <!-- Generator: Sketch 49.3 (51167) - http://www.bohemiancoding.com/sketch -->
    <title>Group 51</title>
    <desc>Created with Sketch.</desc>
    <defs></defs>
    <g id="ICONS" stroke="none" stroke-width="1" fill="none" fill-rule="evenodd">
        <g id="Group-51" transform="translate(1.000000, 0.000000)">
            <polygon id="Fill-63" fill="#B3D8E7" points="18.4736 64.5906 0.4356 60.5906 0.4356 13.2576 18.4736 18.2576"></polygon>
            <polygon id="Fill-65" fill="#B3D8E7" points="54.5078 64.5906 36.4698 60.5906 36.4698 13.2576 54.5078 18.2576"></polygon>
            <polygon id="Stroke-67" stroke="#797979" stroke-width="1.5" points="36.4697 13.2576 18.4527 18.2516 0.4357 13.2576 0.4357 60.5906 18.4317 64.5816 18.4317 64.5906 18.4527 64.5866 18.4737 64.5906 18.4737 64.5816 36.4697 60.5906 54.5077 64.5906 54.5077 18.2576"></polygon>
            <path d="M27.4717,14.0262 C25.9427,14.0262 24.7027,12.7872 24.7027,11.2572 C24.7027,9.7282 25.9427,8.4892 27.4717,8.4892 C29.0007,8.4892 30.2407,9.7282 30.2407,11.2572 C30.2407,12.7872 29.0007,14.0262 27.4717,14.0262 M27.4717,0.4022 C21.2587,0.4022 16.2217,5.4382 16.2217,11.6522 C16.2217,14.2482 17.1107,16.6322 18.5867,18.5362 L27.4717,33.9242 L36.3567,18.5362 C37.8327,16.6322 38.7217,14.2482 38.7217,11.6522 C38.7217,5.4382 33.6847,0.4022 27.4717,0.4022" id="Fill-69" fill="#52B68D"></path>
        </g>
    </g>
</svg>